G04*
G04 #@! TF.GenerationSoftware,Altium Limited,CircuitMaker,2.3.0 (2.3.0.3)*
G04*
G04 Layer_Color=20142*
%FSLAX25Y25*%
%MOIN*%
G70*
G04*
G04 #@! TF.SameCoordinates,F5C641B9-28B3-4D49-9DD8-C7E1E1099596*
G04*
G04*
G04 #@! TF.FilePolarity,Negative*
G04*
G01*
G75*
G04:AMPARAMS|DCode=15|XSize=47.37mil|YSize=80.83mil|CornerRadius=0mil|HoleSize=0mil|Usage=FLASHONLY|Rotation=330.000|XOffset=0mil|YOffset=0mil|HoleType=Round|Shape=Rectangle|*
%AMROTATEDRECTD15*
4,1,4,-0.04072,-0.02316,-0.00030,0.04684,0.04072,0.02316,0.00030,-0.04684,-0.04072,-0.02316,0.0*
%
%ADD15ROTATEDRECTD15*%

G04:AMPARAMS|DCode=16|XSize=47.37mil|YSize=80.83mil|CornerRadius=0mil|HoleSize=0mil|Usage=FLASHONLY|Rotation=30.000|XOffset=0mil|YOffset=0mil|HoleType=Round|Shape=Rectangle|*
%AMROTATEDRECTD16*
4,1,4,-0.00030,-0.04684,-0.04072,0.02316,0.00030,0.04684,0.04072,-0.02316,-0.00030,-0.04684,0.0*
%
%ADD16ROTATEDRECTD16*%

%ADD17R,0.08083X0.04737*%
%ADD18C,0.13792*%
%ADD19C,0.05800*%
D15*
X-108969Y42762D02*
D03*
X-103002Y39317D02*
D03*
X-97035Y35872D02*
D03*
X-99815Y58616D02*
D03*
X-93848Y55171D02*
D03*
X-87882Y51726D02*
D03*
X108969Y-42762D02*
D03*
X103002Y-39317D02*
D03*
X97035Y-35872D02*
D03*
X99815Y-58616D02*
D03*
X93848Y-55171D02*
D03*
X87882Y-51726D02*
D03*
D16*
X-99815Y-58616D02*
D03*
X-93848Y-55171D02*
D03*
X-87882Y-51726D02*
D03*
X-108969Y-42762D02*
D03*
X-103002Y-39317D02*
D03*
X-97035Y-35872D02*
D03*
X99815Y58616D02*
D03*
X93848Y55171D02*
D03*
X87882Y51726D02*
D03*
X108969Y42762D02*
D03*
X103002Y39317D02*
D03*
X97035Y35872D02*
D03*
D17*
X9154Y-117126D02*
D03*
Y-110236D02*
D03*
Y-103346D02*
D03*
X-9154Y-117126D02*
D03*
Y-110236D02*
D03*
Y-103346D02*
D03*
Y117126D02*
D03*
Y110236D02*
D03*
Y103346D02*
D03*
X9154Y117126D02*
D03*
Y110236D02*
D03*
Y103346D02*
D03*
D18*
X-79233Y73424D02*
D03*
X-68209Y84448D02*
D03*
X-57185Y95472D02*
D03*
X-46161Y106497D02*
D03*
D19*
X-98524Y27362D02*
D03*
X-80216Y-59469D02*
D03*
X80706Y61372D02*
D03*
X18403Y-103392D02*
D03*
X97835Y-21850D02*
D03*
X-19390Y103010D02*
D03*
M02*
