G04*
G04 #@! TF.GenerationSoftware,Altium Limited,CircuitMaker,2.3.0 (2.3.0.3)*
G04*
G04 Layer_Physical_Order=1*
G04 Layer_Color=25308*
%FSLAX25Y25*%
%MOIN*%
G70*
G04*
G04 #@! TF.SameCoordinates,F5C641B9-28B3-4D49-9DD8-C7E1E1099596*
G04*
G04*
G04 #@! TF.FilePolarity,Positive*
G04*
G01*
G75*
%ADD10C,0.01000*%
G04:AMPARAMS|DCode=12|XSize=39.37mil|YSize=72.83mil|CornerRadius=0mil|HoleSize=0mil|Usage=FLASHONLY|Rotation=330.000|XOffset=0mil|YOffset=0mil|HoleType=Round|Shape=Rectangle|*
%AMROTATEDRECTD12*
4,1,4,-0.03526,-0.02170,0.00116,0.04138,0.03526,0.02170,-0.00116,-0.04138,-0.03526,-0.02170,0.0*
%
%ADD12ROTATEDRECTD12*%

G04:AMPARAMS|DCode=13|XSize=39.37mil|YSize=72.83mil|CornerRadius=0mil|HoleSize=0mil|Usage=FLASHONLY|Rotation=30.000|XOffset=0mil|YOffset=0mil|HoleType=Round|Shape=Rectangle|*
%AMROTATEDRECTD13*
4,1,4,0.00116,-0.04138,-0.03526,0.02170,-0.00116,0.04138,0.03526,-0.02170,0.00116,-0.04138,0.0*
%
%ADD13ROTATEDRECTD13*%

%ADD14R,0.07283X0.03937*%
%ADD20C,0.00600*%
%ADD21C,0.01968*%
%ADD22C,0.12992*%
%ADD23C,0.05000*%
D10*
X137795Y0D02*
G03*
X137795Y0I-137795J0D01*
G01*
X82677Y207D02*
G03*
X82677Y0I-82677J-207D01*
G01*
X137795D02*
G03*
X137795Y0I-137795J0D01*
G01*
D12*
X-108969Y42762D02*
D03*
X-103002Y39317D02*
D03*
X-97035Y35872D02*
D03*
X-99815Y58616D02*
D03*
X-93848Y55171D02*
D03*
X-87882Y51726D02*
D03*
X108969Y-42762D02*
D03*
X103002Y-39317D02*
D03*
X97035Y-35872D02*
D03*
X99815Y-58616D02*
D03*
X93848Y-55171D02*
D03*
X87882Y-51726D02*
D03*
D13*
X-99815Y-58616D02*
D03*
X-93848Y-55171D02*
D03*
X-87882Y-51726D02*
D03*
X-108969Y-42762D02*
D03*
X-103002Y-39317D02*
D03*
X-97035Y-35872D02*
D03*
X99815Y58616D02*
D03*
X93848Y55171D02*
D03*
X87882Y51726D02*
D03*
X108969Y42762D02*
D03*
X103002Y39317D02*
D03*
X97035Y35872D02*
D03*
D14*
X9154Y-117126D02*
D03*
Y-110236D02*
D03*
Y-103346D02*
D03*
X-9154Y-117126D02*
D03*
Y-110236D02*
D03*
Y-103346D02*
D03*
Y117126D02*
D03*
Y110236D02*
D03*
Y103346D02*
D03*
X9154Y117126D02*
D03*
Y110236D02*
D03*
Y103346D02*
D03*
D20*
X-77428Y93667D02*
X-68209Y84448D01*
X-77428Y93667D02*
Y95472D01*
X-58661Y96948D02*
X-57185Y95472D01*
X-58661Y96948D02*
Y109939D01*
X-32283Y90453D02*
Y90947D01*
X-9154Y-103346D02*
X-8858Y-103051D01*
X-58661Y109939D02*
X-49400Y119200D01*
X-87882Y50480D02*
Y51726D01*
X-98524Y34384D02*
X-97035Y35872D01*
X-98524Y27362D02*
Y34384D01*
X-87882Y-51726D02*
X-80216Y-59392D01*
Y-59469D02*
Y-59392D01*
X18358Y-103346D02*
X18403Y-103392D01*
X9154Y-103346D02*
X18358D01*
X97035Y-22650D02*
X97835Y-21850D01*
X97035Y-35872D02*
Y-22650D01*
X80706Y58902D02*
Y61372D01*
Y58902D02*
X87882Y51726D01*
X38783Y110236D02*
X93848Y55171D01*
X9154Y110236D02*
X38783D01*
X-19390Y103010D02*
X-19054Y103346D01*
X103002Y-39317D02*
Y39317D01*
X-500Y121646D02*
X-295Y121850D01*
X-546Y121600D02*
X-500Y121646D01*
X-51300Y121600D02*
X-546D01*
X-500Y110236D02*
Y121646D01*
X-9154Y110236D02*
X-500D01*
X-99815Y-58616D02*
X-63254Y-95177D01*
X-38976D01*
X-17028Y-117126D01*
X-9154D01*
X-11090Y-108300D02*
X-9154Y-110236D01*
X-17889Y-108300D02*
X-11090D01*
X-36032Y-90158D02*
X-17889Y-108300D01*
X-58862Y-90158D02*
X-36032D01*
X-93848Y-55171D02*
X-58862Y-90158D01*
X-97035Y-35076D02*
X-96859Y-34900D01*
X-93848Y-56600D02*
Y-55171D01*
X9154Y117126D02*
X62174D01*
X99000Y80300D01*
Y60065D02*
Y80300D01*
Y60065D02*
X99815Y58616D01*
X9154Y-110236D02*
X38783D01*
X93848Y-55171D01*
X9154Y-117126D02*
X41305D01*
X99815Y-58616D01*
X-19054Y103346D02*
X-9154D01*
X-77428Y95472D02*
X-51300Y121600D01*
X-21626Y117126D02*
X-9154D01*
X-23700Y119200D02*
X-21626Y117126D01*
X-49400Y119200D02*
X-23700D01*
X87882Y-51726D02*
X88718Y-50277D01*
X88700Y-50259D02*
X88718Y-50277D01*
X-103002Y-39317D02*
Y39317D01*
X108969Y-42762D02*
Y42762D01*
X-108969Y-42762D02*
Y42762D01*
D21*
X-32283Y89764D02*
Y90453D01*
X-78248Y43799D02*
X-32283Y89764D01*
X-89468Y32579D02*
X-78248Y43799D01*
X-87882Y51726D02*
X-79955Y43799D01*
X-78248D01*
X-32283Y90453D02*
X16667D01*
X-47637Y106300D02*
X-32283Y90947D01*
X-8858Y-91929D02*
Y-91403D01*
Y-103051D02*
Y-91929D01*
X-23952Y-91403D02*
X-8858D01*
Y-91929D02*
X37598D01*
X79921Y-47244D02*
X87205Y-39961D01*
X81102Y-48425D02*
X84404Y-51726D01*
X79921Y-47244D02*
X81102Y-48425D01*
X37598Y-91929D02*
X81102Y-48425D01*
X91929Y33763D02*
X93428Y32265D01*
X87205Y-39961D02*
Y-20079D01*
X91929Y-15354D01*
Y33763D01*
X66831Y58862D02*
X91929Y33763D01*
X66831Y58862D02*
Y66076D01*
X29561Y103346D02*
X66831Y66076D01*
X16667Y90453D02*
X29561Y103346D01*
X93428Y32265D02*
X97035Y35872D01*
X84404Y-51726D02*
X87882D01*
X-31988Y-83366D02*
X-23952Y-91403D01*
X-89468Y-30432D02*
X-85000Y-34900D01*
X-89468Y-30432D02*
Y32579D01*
X-44094Y-83366D02*
X-31988D01*
X-85000Y-42461D02*
X-44094Y-83366D01*
X-85000Y-42461D02*
Y-34900D01*
X-96859D02*
X-85000D01*
X9154Y103346D02*
X29561D01*
D22*
X-79233Y73424D02*
D03*
X-68209Y84448D02*
D03*
X-57185Y95472D02*
D03*
X-46161Y106497D02*
D03*
D23*
X-98524Y27362D02*
D03*
X-80216Y-59469D02*
D03*
X80706Y61372D02*
D03*
X18403Y-103392D02*
D03*
X97835Y-21850D02*
D03*
X-19390Y103010D02*
D03*
M02*
