G04*
G04 #@! TF.GenerationSoftware,Altium Limited,CircuitMaker,2.3.0 (2.3.0.3)*
G04*
G04 Layer_Color=15132400*
%FSLAX25Y25*%
%MOIN*%
G70*
G04*
G04 #@! TF.SameCoordinates,F5C641B9-28B3-4D49-9DD8-C7E1E1099596*
G04*
G04*
G04 #@! TF.FilePolarity,Positive*
G04*
G01*
G75*
%ADD10C,0.01000*%
%ADD11C,0.00787*%
G36*
X-95267Y78604D02*
X-51427Y122444D01*
X-54609Y125626D01*
X-98449Y81786D01*
X-95267Y78604D01*
D02*
G37*
G36*
X-39052Y99463D02*
X-37874Y93571D01*
X-33160Y98285D01*
X-39052Y99463D01*
D02*
G37*
D10*
X-113287Y42868D02*
G03*
X-113287Y42868I-394J0D01*
G01*
X-101870Y-62644D02*
G03*
X-101870Y-62644I-394J0D01*
G01*
X11811Y-121260D02*
G03*
X11811Y-121260I-394J0D01*
G01*
X114074Y-42868D02*
G03*
X114074Y-42868I-394J0D01*
G01*
X102657Y62644D02*
G03*
X102657Y62644I-394J0D01*
G01*
X-11024Y121260D02*
G03*
X-11024Y121260I-394J0D01*
G01*
X-114300Y73598D02*
Y67600D01*
X-110301D01*
X-104303Y73598D02*
X-106303Y72598D01*
X-108302Y70599D01*
Y68600D01*
X-107302Y67600D01*
X-105303D01*
X-104303Y68600D01*
Y69599D01*
X-105303Y70599D01*
X-108302D01*
X-114300Y-21702D02*
Y-27700D01*
X-110301D01*
X-104303Y-21702D02*
X-108302D01*
Y-24701D01*
X-106303Y-23701D01*
X-105303D01*
X-104303Y-24701D01*
Y-26700D01*
X-105303Y-27700D01*
X-107302D01*
X-108302Y-26700D01*
X-12200Y-91002D02*
Y-97000D01*
X-8201D01*
X-3203D02*
Y-91002D01*
X-6202Y-94001D01*
X-2203D01*
X84000Y-21702D02*
Y-27700D01*
X87999D01*
X89998Y-22702D02*
X90998Y-21702D01*
X92997D01*
X93997Y-22702D01*
Y-23701D01*
X92997Y-24701D01*
X91997D01*
X92997D01*
X93997Y-25701D01*
Y-26700D01*
X92997Y-27700D01*
X90998D01*
X89998Y-26700D01*
X84000Y73598D02*
Y67600D01*
X87999D01*
X93997D02*
X89998D01*
X93997Y71599D01*
Y72598D01*
X92997Y73598D01*
X90998D01*
X89998Y72598D01*
X-12200Y131198D02*
Y125200D01*
X-8201D01*
X-6202D02*
X-4203D01*
X-5202D01*
Y131198D01*
X-6202Y130198D01*
X-31755Y84283D02*
X-32754Y85283D01*
X-34754D01*
X-35753Y84283D01*
Y80284D01*
X-34754Y79285D01*
X-32754D01*
X-31755Y80284D01*
X-29755Y79285D02*
Y85283D01*
X-25757Y79285D01*
Y85283D01*
X-19759Y79285D02*
X-23757D01*
X-19759Y83283D01*
Y84283D01*
X-20758Y85283D01*
X-22758D01*
X-23757Y84283D01*
D11*
X-94823Y33799D02*
X-84980Y50847D01*
X-111870Y43641D02*
X-102028Y60689D01*
X-94823Y-33799D02*
X-84980Y-50847D01*
X-111870Y-43641D02*
X-102028Y-60689D01*
X-9843Y-100394D02*
X9843D01*
X-9843Y-120079D02*
X9843D01*
X84980Y-50847D02*
X94823Y-33799D01*
X102028Y-60689D02*
X111870Y-43641D01*
X84980Y50847D02*
X94823Y33799D01*
X102028Y60689D02*
X111870Y43641D01*
X-9843Y100394D02*
X9843D01*
X-9843Y120079D02*
X9843D01*
M02*
