G04*
G04 #@! TF.GenerationSoftware,Altium Limited,CircuitMaker,2.3.0 (2.3.0.3)*
G04*
G04 Layer_Physical_Order=2*
G04 Layer_Color=11436288*
%FSLAX25Y25*%
%MOIN*%
G70*
G04*
G04 #@! TF.SameCoordinates,F5C641B9-28B3-4D49-9DD8-C7E1E1099596*
G04*
G04*
G04 #@! TF.FilePolarity,Positive*
G04*
G01*
G75*
%ADD10C,0.01000*%
%ADD22C,0.12992*%
%ADD23C,0.05000*%
G36*
X7133Y136105D02*
X14246Y135545D01*
X21321Y134614D01*
X28337Y133314D01*
X35275Y131648D01*
X42116Y129621D01*
X48843Y127240D01*
X55435Y124509D01*
X61875Y121437D01*
X68146Y118032D01*
X74230Y114304D01*
X80110Y110263D01*
X85771Y105919D01*
X91197Y101285D01*
X96373Y96373D01*
X101285Y91197D01*
X105919Y85771D01*
X110263Y80110D01*
X114304Y74230D01*
X118032Y68146D01*
X121437Y61875D01*
X124509Y55435D01*
X127240Y48843D01*
X129621Y42116D01*
X131648Y35275D01*
X133314Y28337D01*
X134614Y21321D01*
X135545Y14246D01*
X136105Y7133D01*
X136292Y0D01*
X136105Y-7133D01*
X135545Y-14246D01*
X134614Y-21321D01*
X133314Y-28337D01*
X131648Y-35275D01*
X129621Y-42116D01*
X127240Y-48843D01*
X124509Y-55435D01*
X121437Y-61875D01*
X118032Y-68146D01*
X114304Y-74230D01*
X110263Y-80110D01*
X105919Y-85771D01*
X101285Y-91197D01*
X96373Y-96373D01*
X91197Y-101285D01*
X85771Y-105919D01*
X80110Y-110263D01*
X74230Y-114304D01*
X68146Y-118032D01*
X61875Y-121437D01*
X55435Y-124509D01*
X48843Y-127240D01*
X42116Y-129621D01*
X35275Y-131648D01*
X28337Y-133314D01*
X21321Y-134614D01*
X14246Y-135545D01*
X7133Y-136105D01*
X0Y-136292D01*
X-7133Y-136105D01*
X-14246Y-135545D01*
X-21321Y-134614D01*
X-28337Y-133314D01*
X-35275Y-131648D01*
X-42116Y-129621D01*
X-48843Y-127240D01*
X-55435Y-124509D01*
X-61875Y-121437D01*
X-68146Y-118032D01*
X-74230Y-114304D01*
X-80110Y-110263D01*
X-85771Y-105919D01*
X-91197Y-101285D01*
X-96373Y-96373D01*
X-101285Y-91197D01*
X-105919Y-85771D01*
X-110263Y-80110D01*
X-114304Y-74230D01*
X-118032Y-68146D01*
X-121437Y-61875D01*
X-124509Y-55435D01*
X-127240Y-48843D01*
X-129621Y-42116D01*
X-131648Y-35275D01*
X-133314Y-28337D01*
X-134614Y-21321D01*
X-135545Y-14246D01*
X-136105Y-7133D01*
X-136292Y0D01*
X-136105Y7133D01*
X-135545Y14246D01*
X-134614Y21321D01*
X-133314Y28337D01*
X-131648Y35275D01*
X-129621Y42116D01*
X-127240Y48843D01*
X-124509Y55435D01*
X-121437Y61875D01*
X-118032Y68146D01*
X-114304Y74230D01*
X-110263Y80110D01*
X-105919Y85771D01*
X-101285Y91197D01*
X-96373Y96373D01*
X-91197Y101285D01*
X-85771Y105919D01*
X-80110Y110263D01*
X-74230Y114304D01*
X-68146Y118032D01*
X-61875Y121437D01*
X-55435Y124509D01*
X-48843Y127240D01*
X-42116Y129621D01*
X-35275Y131648D01*
X-28337Y133314D01*
X-21321Y134614D01*
X-14246Y135545D01*
X-7133Y136105D01*
X0Y136292D01*
X7133Y136105D01*
D02*
G37*
%LPC*%
G36*
X-18890Y106500D02*
Y103510D01*
X-15900D01*
X-16128Y104361D01*
X-16589Y105159D01*
X-17241Y105811D01*
X-18039Y106272D01*
X-18890Y106500D01*
D02*
G37*
G36*
X-19890D02*
X-20741Y106272D01*
X-21539Y105811D01*
X-22190Y105159D01*
X-22651Y104361D01*
X-22879Y103510D01*
X-19890D01*
Y106500D01*
D02*
G37*
G36*
X-15900Y102510D02*
X-18890D01*
Y99521D01*
X-18039Y99749D01*
X-17241Y100209D01*
X-16589Y100861D01*
X-16128Y101659D01*
X-15900Y102510D01*
D02*
G37*
G36*
X-19890D02*
X-22879D01*
X-22651Y101659D01*
X-22190Y100861D01*
X-21539Y100209D01*
X-20741Y99749D01*
X-19890Y99521D01*
Y102510D01*
D02*
G37*
G36*
X-45423Y113993D02*
X-46899D01*
X-48347Y113705D01*
X-49712Y113140D01*
X-50939Y112319D01*
X-51983Y111275D01*
X-52804Y110047D01*
X-53369Y108683D01*
X-53657Y107235D01*
Y105758D01*
X-53369Y104310D01*
X-52804Y102946D01*
X-51983Y101718D01*
X-50939Y100674D01*
X-49712Y99854D01*
X-48347Y99289D01*
X-46899Y99001D01*
X-45423D01*
X-43974Y99289D01*
X-42610Y99854D01*
X-41382Y100674D01*
X-40338Y101718D01*
X-39518Y102946D01*
X-38953Y104310D01*
X-38665Y105758D01*
Y107235D01*
X-38953Y108683D01*
X-39518Y110047D01*
X-40338Y111275D01*
X-41382Y112319D01*
X-42610Y113140D01*
X-43974Y113705D01*
X-45423Y113993D01*
D02*
G37*
G36*
X-56447Y102969D02*
X-57923D01*
X-59372Y102680D01*
X-60736Y102115D01*
X-61963Y101295D01*
X-63008Y100251D01*
X-63828Y99023D01*
X-64393Y97659D01*
X-64681Y96211D01*
Y94734D01*
X-64393Y93286D01*
X-63828Y91922D01*
X-63008Y90694D01*
X-61963Y89650D01*
X-60736Y88829D01*
X-59372Y88264D01*
X-57923Y87976D01*
X-56447D01*
X-54998Y88264D01*
X-53634Y88829D01*
X-52407Y89650D01*
X-51363Y90694D01*
X-50542Y91922D01*
X-49977Y93286D01*
X-49689Y94734D01*
Y96211D01*
X-49977Y97659D01*
X-50542Y99023D01*
X-51363Y100251D01*
X-52407Y101295D01*
X-53634Y102115D01*
X-54998Y102680D01*
X-56447Y102969D01*
D02*
G37*
G36*
X-67471Y91944D02*
X-68947D01*
X-70396Y91656D01*
X-71760Y91091D01*
X-72988Y90271D01*
X-74032Y89227D01*
X-74852Y87999D01*
X-75417Y86635D01*
X-75705Y85186D01*
Y83710D01*
X-75417Y82262D01*
X-74852Y80897D01*
X-74032Y79670D01*
X-72988Y78626D01*
X-71760Y77805D01*
X-70396Y77240D01*
X-68947Y76952D01*
X-67471D01*
X-66023Y77240D01*
X-64658Y77805D01*
X-63431Y78626D01*
X-62387Y79670D01*
X-61566Y80897D01*
X-61001Y82262D01*
X-60713Y83710D01*
Y85186D01*
X-61001Y86635D01*
X-61566Y87999D01*
X-62387Y89227D01*
X-63431Y90271D01*
X-64658Y91091D01*
X-66023Y91656D01*
X-67471Y91944D01*
D02*
G37*
G36*
X-78495Y80920D02*
X-79972D01*
X-81420Y80632D01*
X-82784Y80067D01*
X-84012Y79247D01*
X-84180Y79078D01*
X-79233Y74131D01*
X-74287Y79078D01*
X-74455Y79247D01*
X-75683Y80067D01*
X-77047Y80632D01*
X-78495Y80920D01*
D02*
G37*
G36*
X-73579Y78371D02*
X-78526Y73424D01*
X-73579Y68477D01*
X-73411Y68646D01*
X-72591Y69873D01*
X-72026Y71238D01*
X-71737Y72686D01*
Y74163D01*
X-72026Y75611D01*
X-72591Y76975D01*
X-73411Y78203D01*
X-73579Y78371D01*
D02*
G37*
G36*
X-84887Y78371D02*
X-85056Y78203D01*
X-85876Y76975D01*
X-86441Y75611D01*
X-86730Y74163D01*
Y72686D01*
X-86441Y71238D01*
X-85876Y69873D01*
X-85056Y68646D01*
X-84887Y68477D01*
X-79940Y73424D01*
X-84887Y78371D01*
D02*
G37*
G36*
X-79233Y72717D02*
X-84180Y67770D01*
X-84012Y67602D01*
X-82784Y66781D01*
X-81420Y66216D01*
X-79972Y65928D01*
X-78495D01*
X-77047Y66216D01*
X-75683Y66781D01*
X-74455Y67602D01*
X-74287Y67770D01*
X-79233Y72717D01*
D02*
G37*
G36*
X81206Y64862D02*
Y61872D01*
X84196D01*
X83968Y62723D01*
X83507Y63521D01*
X82855Y64173D01*
X82057Y64634D01*
X81206Y64862D01*
D02*
G37*
G36*
X80206D02*
X79355Y64634D01*
X78557Y64173D01*
X77906Y63521D01*
X77445Y62723D01*
X77217Y61872D01*
X80206D01*
Y64862D01*
D02*
G37*
G36*
X84196Y60872D02*
X81206D01*
Y57883D01*
X82057Y58111D01*
X82855Y58572D01*
X83507Y59223D01*
X83968Y60021D01*
X84196Y60872D01*
D02*
G37*
G36*
X80206D02*
X77217D01*
X77445Y60021D01*
X77906Y59223D01*
X78557Y58572D01*
X79355Y58111D01*
X80206Y57883D01*
Y60872D01*
D02*
G37*
G36*
X-98024Y30852D02*
Y27862D01*
X-95034D01*
X-95262Y28713D01*
X-95723Y29511D01*
X-96375Y30163D01*
X-97173Y30624D01*
X-98024Y30852D01*
D02*
G37*
G36*
X-99024D02*
X-99875Y30624D01*
X-100673Y30163D01*
X-101324Y29511D01*
X-101785Y28713D01*
X-102013Y27862D01*
X-99024D01*
Y30852D01*
D02*
G37*
G36*
X-95034Y26862D02*
X-98024D01*
Y23873D01*
X-97173Y24101D01*
X-96375Y24562D01*
X-95723Y25213D01*
X-95262Y26011D01*
X-95034Y26862D01*
D02*
G37*
G36*
X-99024D02*
X-102013D01*
X-101785Y26011D01*
X-101324Y25213D01*
X-100673Y24562D01*
X-99875Y24101D01*
X-99024Y23873D01*
Y26862D01*
D02*
G37*
G36*
X98335Y-18361D02*
Y-21350D01*
X101324D01*
X101096Y-20499D01*
X100635Y-19701D01*
X99984Y-19050D01*
X99186Y-18589D01*
X98335Y-18361D01*
D02*
G37*
G36*
X97335D02*
X96484Y-18589D01*
X95686Y-19050D01*
X95034Y-19701D01*
X94573Y-20499D01*
X94345Y-21350D01*
X97335D01*
Y-18361D01*
D02*
G37*
G36*
X101324Y-22350D02*
X98335D01*
Y-25340D01*
X99186Y-25112D01*
X99984Y-24651D01*
X100635Y-23999D01*
X101096Y-23201D01*
X101324Y-22350D01*
D02*
G37*
G36*
X97335D02*
X94345D01*
X94573Y-23201D01*
X95034Y-23999D01*
X95686Y-24651D01*
X96484Y-25112D01*
X97335Y-25340D01*
Y-22350D01*
D02*
G37*
G36*
X-79716Y-55980D02*
Y-58969D01*
X-76727D01*
X-76955Y-58118D01*
X-77416Y-57320D01*
X-78067Y-56669D01*
X-78866Y-56208D01*
X-79716Y-55980D01*
D02*
G37*
G36*
X-80717D02*
X-81568Y-56208D01*
X-82366Y-56669D01*
X-83017Y-57320D01*
X-83478Y-58118D01*
X-83706Y-58969D01*
X-80717D01*
Y-55980D01*
D02*
G37*
G36*
X-76727Y-59969D02*
X-79716D01*
Y-62959D01*
X-78866Y-62731D01*
X-78067Y-62270D01*
X-77416Y-61619D01*
X-76955Y-60820D01*
X-76727Y-59969D01*
D02*
G37*
G36*
X-80717D02*
X-83706D01*
X-83478Y-60820D01*
X-83017Y-61619D01*
X-82366Y-62270D01*
X-81568Y-62731D01*
X-80717Y-62959D01*
Y-59969D01*
D02*
G37*
G36*
X0Y84222D02*
X-5508Y84042D01*
X-10993Y83502D01*
X-16431Y82604D01*
X-21798Y81353D01*
X-27072Y79753D01*
X-32230Y77811D01*
X-37251Y75537D01*
X-42111Y72939D01*
X-46791Y70028D01*
X-51271Y66818D01*
X-55532Y63322D01*
X-59554Y59554D01*
X-63322Y55532D01*
X-66818Y51271D01*
X-70028Y46791D01*
X-72939Y42111D01*
X-75537Y37251D01*
X-77811Y32230D01*
X-79753Y27072D01*
X-81353Y21798D01*
X-82604Y16431D01*
X-83502Y10993D01*
X-84042Y5508D01*
X-84222Y0D01*
X-84042Y-5508D01*
X-83502Y-10993D01*
X-82604Y-16431D01*
X-81353Y-21798D01*
X-79753Y-27072D01*
X-77811Y-32230D01*
X-75537Y-37251D01*
X-72939Y-42111D01*
X-70028Y-46791D01*
X-66818Y-51271D01*
X-63322Y-55532D01*
X-59554Y-59554D01*
X-55532Y-63322D01*
X-51271Y-66818D01*
X-46791Y-70028D01*
X-42111Y-72939D01*
X-37251Y-75537D01*
X-32230Y-77811D01*
X-27072Y-79753D01*
X-21798Y-81353D01*
X-16431Y-82604D01*
X-10993Y-83502D01*
X-5508Y-84042D01*
X0Y-84222D01*
X5508Y-84042D01*
X10993Y-83502D01*
X16431Y-82604D01*
X21798Y-81353D01*
X27072Y-79753D01*
X32230Y-77811D01*
X37251Y-75537D01*
X42111Y-72939D01*
X46791Y-70028D01*
X51271Y-66818D01*
X55532Y-63322D01*
X59554Y-59554D01*
X63322Y-55532D01*
X66818Y-51271D01*
X70028Y-46791D01*
X72939Y-42111D01*
X75537Y-37251D01*
X77811Y-32230D01*
X79753Y-27072D01*
X81353Y-21798D01*
X82604Y-16431D01*
X83502Y-10993D01*
X84042Y-5508D01*
X84222Y0D01*
X84042Y5508D01*
X83502Y10993D01*
X82604Y16431D01*
X81353Y21798D01*
X79753Y27072D01*
X77811Y32230D01*
X75537Y37251D01*
X72939Y42111D01*
X70028Y46791D01*
X66818Y51271D01*
X63322Y55532D01*
X59554Y59554D01*
X55532Y63322D01*
X51271Y66818D01*
X46791Y70028D01*
X42111Y72939D01*
X37251Y75537D01*
X32230Y77811D01*
X27072Y79753D01*
X21798Y81353D01*
X16431Y82604D01*
X10993Y83502D01*
X5508Y84042D01*
X0Y84222D01*
D02*
G37*
G36*
X18903Y-99902D02*
Y-102892D01*
X21893D01*
X21665Y-102041D01*
X21204Y-101242D01*
X20552Y-100591D01*
X19754Y-100130D01*
X18903Y-99902D01*
D02*
G37*
G36*
X17903D02*
X17052Y-100130D01*
X16254Y-100591D01*
X15602Y-101242D01*
X15142Y-102041D01*
X14914Y-102892D01*
X17903D01*
Y-99902D01*
D02*
G37*
G36*
X21893Y-103892D02*
X18903D01*
Y-106881D01*
X19754Y-106653D01*
X20552Y-106192D01*
X21204Y-105541D01*
X21665Y-104743D01*
X21893Y-103892D01*
D02*
G37*
G36*
X17903D02*
X14914D01*
X15142Y-104743D01*
X15602Y-105541D01*
X16254Y-106192D01*
X17052Y-106653D01*
X17903Y-106881D01*
Y-103892D01*
D02*
G37*
%LPD*%
D10*
X82677Y207D02*
G03*
X82677Y0I-82677J-207D01*
G01*
X137795D02*
G03*
X137795Y0I-137795J0D01*
G01*
D22*
X-79233Y73424D02*
D03*
X-68209Y84448D02*
D03*
X-57185Y95472D02*
D03*
X-46161Y106497D02*
D03*
D23*
X-98524Y27362D02*
D03*
X-80216Y-59469D02*
D03*
X80706Y61372D02*
D03*
X18403Y-103392D02*
D03*
X97835Y-21850D02*
D03*
X-19390Y103010D02*
D03*
M02*
